<?xml version="1.0" encoding="UTF-8"?>
<svg width="20px" height="20px" viewBox="0 0 20 20" version="1.1" xmlns="http://www.w3.org/2000/svg" xmlns:xlink="http://www.w3.org/1999/xlink">
    <!-- Generator: Sketch 45.1 (43504) - http://www.bohemiancoding.com/sketch -->
    <title>Shape</title>
    <desc>Created with Sketch.</desc>
    <defs></defs>
    <g id="Page-1" stroke="none" stroke-width="1" fill="none" fill-rule="evenodd">
        <g id="logo_zalando" fill-rule="nonzero" fill="#30B786">
            <path d="M18.757,7.794 C17.305,6.037 15.261,4.336 12.607,2.822 L12.587,2.822 C9.913,1.327 7.392,0.45 5.12,0.093 C3.705,-0.13 3.018,0.131 2.712,0.3 C2.407,0.468 1.834,0.917 1.318,2.225 C0.497,4.336 0.019,6.897 0,9.925 L0,9.944 C0.02,12.972 0.497,15.533 1.318,17.644 C1.834,18.954 2.407,19.402 2.712,19.57 C3.018,19.738 3.705,20 5.119,19.776 C7.392,19.421 9.913,18.542 12.587,17.046 L12.607,17.046 C15.261,15.533 17.305,13.832 18.757,12.093 C19.674,11.009 19.769,10.299 19.769,9.943 C19.769,9.589 19.654,8.879 18.757,7.794 Z" id="Shape"></path>
        </g>
    </g>
</svg>